<svg xmlns="http://www.w3.org/2000/svg" viewBox="0 0 342.37 438.31"><title>404</title><g id="OBJECTS"><g id="R9BioY"><path d="M343.42,62.22c-.45-.41-.9-.82-1.36-1.22a.28.28,0,0,1-.1-.32,5.11,5.11,0,0,0,.21-1.29.27.27,0,0,1,.18-.26l1.5-.75a.44.44,0,0,0,.26-.61c-.36-1-.73-1.9-1.1-2.85-.1-.27-.24-.33-.51-.26l-1.77.48a.3.3,0,0,1-.31-.07,7.86,7.86,0,0,0-1-.83.23.23,0,0,1-.12-.23c0-.62.07-1.23.14-1.85,0-.23-.07-.34-.26-.37-1-.17-2-.34-3.05-.49-.27,0-.4.08-.47.33-.14.55-.29,1.1-.42,1.65a.3.3,0,0,1-.24.25,3.79,3.79,0,0,0-1.17.45.29.29,0,0,1-.34,0c-.46-.32-.94-.63-1.42-.94a.5.5,0,0,0-.76.12l-1.84,2.25c-.22.27-.22.39,0,.65l1.21,1.2a.35.35,0,0,1,.12.35,7.41,7.41,0,0,0-.18,1.24.26.26,0,0,1-.17.28l-1.55.78a.4.4,0,0,0-.23.56c.36,1,.74,1.93,1.11,2.9a.36.36,0,0,0,.5.24l1.77-.48a.28.28,0,0,1,.31.06,8.18,8.18,0,0,0,1,.84.25.25,0,0,1,.12.24c0,.56-.08,1.12-.12,1.68,0,.37.07.5.44.56l1.41.23,1.51.24c.32,0,.45,0,.53-.35.15-.55.29-1.1.43-1.65,0-.13.08-.19.2-.21a3.92,3.92,0,0,0,1.19-.46.3.3,0,0,1,.36,0l1.42.94a.47.47,0,0,0,.71-.1l1.88-2.28C343.71,62.6,343.7,62.47,343.42,62.22Zm-7.54.05a3.19,3.19,0,1,1,3.67-2.63A3.16,3.16,0,0,1,335.88,62.27Z" transform="translate(-83.03 -40.01)" style="fill:#08ffff"/></g><path d="M327.38,61a35.88,35.88,0,0,0-8.55,4.6,43,43,0,0,0-7.29,6.52c-.58.58-1.05,1.25-1.57,1.87a23.52,23.52,0,0,0-1.49,2l-1.39,2c-.44.69-.83,1.41-1.24,2.12a44,44,0,0,0-2.22,4.39,23.53,23.53,0,0,0-.91,2.28l-.87,2.31.82-2.33a23.61,23.61,0,0,1,.87-2.3A47.72,47.72,0,0,1,305.66,80c.41-.72.78-1.45,1.21-2.16l1.35-2.06a22.25,22.25,0,0,1,1.46-2c.51-.64,1-1.33,1.55-1.93a43.65,43.65,0,0,1,7.23-6.75,36.69,36.69,0,0,1,8.66-4.89Z" transform="translate(-83.03 -40.01)" style="fill:#fff"/><path d="M328.23,66.94A41.68,41.68,0,0,0,320,71.23,51.69,51.69,0,0,0,312.66,77a52.33,52.33,0,0,0-6.21,7c-1,1.22-1.79,2.56-2.65,3.87s-1.55,2.72-2.33,4.08c.75-1.37,1.42-2.8,2.24-4.13a46.7,46.7,0,0,1,2.57-3.94,52.79,52.79,0,0,1,6.09-7.18,51.7,51.7,0,0,1,7.27-6A42.72,42.72,0,0,1,328,66.14Z" transform="translate(-83.03 -40.01)" style="fill:#fff"/><path d="M251.4,74.87l-2.12-1.34c0-.06,3.69-5.91,2.23-10.68-.63-2.08-1.73-3.37-3.26-3.85l-.11,0a9.65,9.65,0,0,1-4.18,5.6,3.31,3.31,0,0,1-4.41-1c-.86-1.3-.84-3.46,1.22-5.11A10.24,10.24,0,0,1,246,56.32a5.6,5.6,0,0,0-.59-2.62,5.19,5.19,0,0,0-3-2.59,7.14,7.14,0,0,1-2.37,5.11c-2.26,1.77-4.67,1.33-5.89,0s-1.42-3.51.58-5.6a7.72,7.72,0,0,1,5-2.31,7.36,7.36,0,0,0-5-5.39,8.92,8.92,0,0,0-8.83,2.36l-.12.12a5.4,5.4,0,0,1,2.88,3.42,3.88,3.88,0,0,1-2.64,4.91,3.78,3.78,0,0,1-4.6-2.9,5.9,5.9,0,0,1,.29-3.81,4.68,4.68,0,0,0-2.13.66,5.22,5.22,0,0,0-2.73,4.92l-2.48.36a7.68,7.68,0,0,1,3.91-7.43,7.54,7.54,0,0,1,4.88-1,12.5,12.5,0,0,1,1-1.09,11.41,11.41,0,0,1,11.34-3,9.94,9.94,0,0,1,6.82,7.88.22.22,0,0,0,0,.08,7.75,7.75,0,0,1,5.35,4.11,8.15,8.15,0,0,1,.85,3.9l.44.12c1.63.51,3.82,1.88,4.92,5.52C255.71,68,251.58,74.59,251.4,74.87Zm-5.91-15.93a7.76,7.76,0,0,0-3.15,1.45c-.74.6-1,1.29-.7,1.78a.82.82,0,0,0,1.14.18A6.91,6.91,0,0,0,245.49,58.94ZM240,50.8a5.26,5.26,0,0,0-3.37,1.53c-.79.82-1,1.68-.54,2.19s1.38.58,2.48-.28A4.81,4.81,0,0,0,240,50.8ZM224.3,47.44a3.77,3.77,0,0,0-.44,2.67c.31,1.08,1,1.32,1.54,1.18s1.11-.82.85-1.9A3.17,3.17,0,0,0,224.3,47.44Z" transform="translate(-83.03 -40.01)" style="fill:#fff"/><circle cx="131.78" cy="17.01" r="5.96" style="fill:#ff06ff"/><path d="M231.8,267.51l-31.73,9.22c-2.39-8.22,2.78-17,11.55-19.49S229.41,259.29,231.8,267.51Z" transform="translate(-83.03 -40.01)" style="fill:#08ffff"/><path d="M234,207.93c-17.78,10.78-21.78,34.29-17.47,53,.61,2.62,4.64,1.51,4-1.11-3.88-16.85-.58-38.52,15.54-48.3,2.3-1.39.2-5-2.11-3.61Z" transform="translate(-83.03 -40.01)" style="fill:#fff"/><path d="M281.18,289.6l-31.48-10c2.6-8.16,11.75-12.52,20.45-9.75S283.78,281.44,281.18,289.6Z" transform="translate(-83.03 -40.01)" style="fill:#08ffff"/><path d="M266.58,209.55c9.39,19.29,6.07,44-3.72,62.3-1.27,2.38,2.34,4.49,3.61,2.11,10.55-19.68,13.8-45.82,3.72-66.52-1.18-2.42-4.79-.31-3.61,2.11Z" transform="translate(-83.03 -40.01)" style="fill:#fff"/><path d="M237.7,167.06c-20.27-4.66-39.52,9.33-49.5,25.79-1.4,2.31,2.22,4.41,3.62,2.11,8.94-14.76,26.39-28.09,44.77-23.86,2.62.6,3.74-3.44,1.11-4Z" transform="translate(-83.03 -40.01)" style="fill:#fff"/><path d="M193.64,208.08l-5.57-3.42c1.56-2.56,1.07-5.7-1.09-7s-5.19-.34-6.76,2.22l-5.57-3.42c3.79-6.18,11.11-8.59,16.36-5.37S197.43,201.89,193.64,208.08Z" transform="translate(-83.03 -40.01)" style="fill:#08ffff"/><path d="M264.11,169.54c20.27,4.66,39.52-9.33,49.5-25.78,1.4-2.31-2.22-4.42-3.61-2.12-8.95,14.76-26.4,28.09-44.78,23.87-2.62-.61-3.74,3.43-1.11,4Z" transform="translate(-83.03 -40.01)" style="fill:#fff"/><path d="M306.54,130.1l5.58,3.41c-1.57,2.56-1.08,5.71,1.08,7s5.19.34,6.76-2.22l5.57,3.42c-3.79,6.18-11.11,8.59-16.35,5.37S302.75,136.28,306.54,130.1Z" transform="translate(-83.03 -40.01)" style="fill:#08ffff"/><rect x="160.86" y="107.39" width="11.3" height="13.39" style="fill:#fff"/><circle cx="167.62" cy="47.97" r="15.62" style="fill:#ff06ff"/><rect x="112.46" y="58.99" width="16.46" height="32.36" rx="5.61" style="fill:#ff06ff"/><rect x="206.32" y="58.99" width="16.46" height="32.36" rx="5.61" style="fill:#ff06ff"/><path d="M205.5,135.05c-1.05-11.93-2.2-42.89-1.64-47.63.37-3.16.8-8.09,14.09-8.09h69.31c7.25,0,10.32,2,10.32,15.9s-1.12,36-1.12,40.45,0,6.41-11.16,6.41H213.06C204.42,142.09,205.77,138.2,205.5,135.05Z" transform="translate(-83.03 -40.01)" style="fill:#3efeff"/><path d="M202.43,140.07a256,256,0,0,1,45.84-6.9c28.74-1.38,52.52,0,52.52,0s-.87,9.3-1.73,12.18-6.24,5.75-21.3,5.75h-65c-4.73,0-7.31-1.17-8.82-5.09A18.76,18.76,0,0,1,202.43,140.07Z" transform="translate(-83.03 -40.01)" style="fill:#2fbfbf"/><circle cx="140.77" cy="76.63" r="14.71" style="fill:#2fbfbf"/><circle cx="140.77" cy="76.46" r="11.54" style="fill:#fff"/><circle cx="192.03" cy="72.31" r="17.78" style="fill:#2fbfbf"/><circle cx="275.41" cy="112.36" r="13.94" transform="translate(36.59 325.74) rotate(-80.61)" style="fill:#fff"/><rect x="138.4" y="67.92" width="5.44" height="7.25" rx="1.86" style="fill:#2d2515"/><rect x="189.31" y="75.17" width="5.44" height="7.25" rx="1.86" style="fill:#2d2515"/><path d="M229.38,160l40-2.45a5.36,5.36,0,0,1,5.69,5.35v43.33a5.36,5.36,0,0,1-5.36,5.36H233.87a5.36,5.36,0,0,1-5.33-4.81l-4.17-40.88A5.36,5.36,0,0,1,229.38,160Z" transform="translate(-83.03 -40.01)" style="fill:#08ffff"/><rect x="150.4" y="126.21" width="33.89" height="20.5" rx="6.81" style="fill:#ff06ff"/><g id="R9BioY-2" data-name="R9BioY"><path d="M323.05,188.22l-1.1-2.17a.35.35,0,0,1,0-.45,6.36,6.36,0,0,0,.88-1.49.37.37,0,0,1,.34-.24l2.22-.2c.41,0,.61-.23.62-.63,0-1.36,0-2.71,0-4.06,0-.38-.15-.52-.52-.56l-2.41-.26a.41.41,0,0,1-.36-.24,9.69,9.69,0,0,0-.84-1.51.32.32,0,0,1,0-.34c.35-.74.68-1.49,1.06-2.22.15-.28.09-.45-.14-.59-1.17-.7-2.35-1.39-3.53-2.07a.5.5,0,0,0-.75.18l-1.32,1.84a.35.35,0,0,1-.41.18,5.44,5.44,0,0,0-1.66,0,.36.36,0,0,1-.41-.17c-.43-.62-.87-1.24-1.31-1.85a.66.66,0,0,0-1-.21l-3.37,1.89c-.4.22-.45.38-.27.81.31.69.6,1.39.92,2.07a.46.46,0,0,1,0,.49,11.54,11.54,0,0,0-.81,1.46.34.34,0,0,1-.35.26c-.77.06-1.53.14-2.29.21a.55.55,0,0,0-.56.59c0,1.37,0,2.75,0,4.12,0,.36.15.5.5.54l2.41.26a.37.37,0,0,1,.36.23,11.66,11.66,0,0,0,.84,1.51.33.33,0,0,1,0,.37c-.32.67-.63,1.34-.95,2-.21.44-.16.64.28.9l1.63,1c.59.35,1.17.7,1.75,1a.53.53,0,0,0,.83-.18c.44-.61.89-1.22,1.32-1.84a.32.32,0,0,1,.36-.15,5.32,5.32,0,0,0,1.69,0,.38.38,0,0,1,.43.21l1.31,1.84a.64.64,0,0,0,.92.22l3.42-1.93C323.21,188.82,323.26,188.65,323.05,188.22Zm-9.36-3.57a4.24,4.24,0,1,1,5.81-1.49A4.23,4.23,0,0,1,313.69,184.65Z" transform="translate(-83.03 -40.01)" style="fill:#08ffff"/></g><g id="R9BioY-3" data-name="R9BioY"><path d="M169.15,157.31q-.6-.7-1.2-1.38a.27.27,0,0,1-.06-.33,5,5,0,0,0,.37-1.25.26.26,0,0,1,.21-.24l1.58-.56a.43.43,0,0,0,.33-.57c-.24-1-.48-2-.73-3-.07-.27-.2-.35-.48-.31l-1.81.25a.27.27,0,0,1-.3-.11,9,9,0,0,0-.9-1,.25.25,0,0,1-.09-.24c.13-.61.23-1.22.37-1.82a.28.28,0,0,0-.21-.4l-3-.86c-.26-.08-.41,0-.51.27l-.63,1.58a.27.27,0,0,1-.26.21,3.85,3.85,0,0,0-1.21.31.29.29,0,0,1-.34-.05c-.42-.38-.86-.74-1.29-1.11a.5.5,0,0,0-.77,0c-.71.66-1.41,1.33-2.11,2-.25.24-.26.36-.05.64.35.45.69.9,1.05,1.35a.32.32,0,0,1,.07.36,8.28,8.28,0,0,0-.32,1.21.28.28,0,0,1-.21.26c-.55.18-1.09.38-1.63.57a.41.41,0,0,0-.3.53c.24,1,.49,2,.74,3,.07.26.21.33.47.29l1.81-.25a.3.3,0,0,1,.31.1,6.68,6.68,0,0,0,.89,1,.27.27,0,0,1,.09.27c-.12.54-.22,1.09-.33,1.64-.07.37,0,.5.37.61l1.37.41,1.47.42c.31.09.45,0,.57-.28l.63-1.59a.24.24,0,0,1,.23-.18,3.7,3.7,0,0,0,1.23-.3.29.29,0,0,1,.36.07c.42.37.86.74,1.29,1.1a.48.48,0,0,0,.72,0l2.14-2C169.38,157.72,169.39,157.59,169.15,157.31Zm-7.49-.88a3.19,3.19,0,1,1,4-2.16A3.18,3.18,0,0,1,161.66,156.43Z" transform="translate(-83.03 -40.01)" style="fill:#08ffff"/></g><path d="M171.14,147.83a42.48,42.48,0,0,1,11.59-.21,51.86,51.86,0,0,1,5.71.93l2.81.7,2.76.87c.93.27,1.8.68,2.7,1a28.19,28.19,0,0,1,2.65,1.14l2.59,1.28c.84.45,1.65,1,2.49,1.45a57.06,57.06,0,0,1,4.78,3.22l.58.42.55.46,1.11.93,2.2,1.85-2.24-1.81-1.11-.91-.56-.45-.6-.41a54.31,54.31,0,0,0-4.82-3.12c-.84-.46-1.66-1-2.51-1.4l-2.59-1.22a25.6,25.6,0,0,0-2.66-1.09c-.9-.33-1.77-.73-2.69-1l-2.75-.82-2.79-.63a49.64,49.64,0,0,0-5.67-.82,41.83,41.83,0,0,0-11.35.4Z" transform="translate(-83.03 -40.01)" style="fill:#fff"/><path d="M173.82,154.33a50,50,0,0,1,11.06-.34,63,63,0,0,1,21.26,5.36c1.7.69,3.3,1.6,4.92,2.44.83.4,1.59.92,2.37,1.39l2.34,1.45-2.37-1.4a26.67,26.67,0,0,0-2.39-1.35c-1.64-.81-3.24-1.68-4.95-2.34a60.57,60.57,0,0,0-10.41-3.39,59.77,59.77,0,0,0-10.81-1.53,49.69,49.69,0,0,0-10.85.53Z" transform="translate(-83.03 -40.01)" style="fill:#fff"/><path d="M304.37,177.79a42.22,42.22,0,0,0-10.84-3.4,51.38,51.38,0,0,0-5.67-.72l-2.86-.13-2.87.06c-1,0-1.91.14-2.86.21a24.92,24.92,0,0,0-2.85.35l-2.82.48c-.94.2-1.86.46-2.79.69a55.23,55.23,0,0,0-5.48,1.72l-.68.24-.66.28-1.32.58L260,179.3l2.62-1.2,1.31-.6.65-.3.68-.24a55.52,55.52,0,0,1,5.46-1.83c.93-.25,1.85-.53,2.79-.74l2.84-.54a27.51,27.51,0,0,1,2.85-.4c1-.1,1.91-.26,2.88-.27l2.89-.11,2.89.08a50.52,50.52,0,0,1,5.75.62,42.79,42.79,0,0,1,11.12,3.28Z" transform="translate(-83.03 -40.01)" style="fill:#fff"/><path d="M300.07,183.35a49.54,49.54,0,0,0-10.32-3.4,59.8,59.8,0,0,0-10.83-1.4,60.52,60.52,0,0,0-10.93.5c-1.82.18-3.61.59-5.4.94a27.37,27.37,0,0,0-2.67.66l-2.65.72,2.64-.77c.88-.25,1.75-.55,2.65-.72,1.79-.38,3.58-.82,5.4-1a63.08,63.08,0,0,1,21.92.5,50.26,50.26,0,0,1,10.57,3.26Z" transform="translate(-83.03 -40.01)" style="fill:#fff"/><path d="M142.6,402.37a29.26,29.26,0,0,1,4.81-.37,8,8,0,0,1,5.44,1.61,5.2,5.2,0,0,1,1.7,4.06,5.72,5.72,0,0,1-1.5,4.15,8,8,0,0,1-5.93,2.13,8.91,8.91,0,0,1-2-.17v7.77h-2.5Zm2.5,9.36a8.17,8.17,0,0,0,2.08.2c3,0,4.86-1.47,4.86-4.14s-1.81-3.8-4.57-3.8a10.36,10.36,0,0,0-2.37.2Z" transform="translate(-83.03 -40.01)" style="fill:#fff"/><path d="M158.64,415.45l-2,6.1H154l6.6-19.41h3l6.62,19.41h-2.68l-2.07-6.1Zm6.36-2-1.9-5.59c-.43-1.27-.72-2.42-1-3.54H162c-.29,1.15-.61,2.33-1,3.51l-1.9,5.62Z" transform="translate(-83.03 -40.01)" style="fill:#fff"/><path d="M187.46,420.69a18.17,18.17,0,0,1-6,1.06,9.11,9.11,0,0,1-10-9.79c0-5.79,4-10,10.51-10a12.08,12.08,0,0,1,4.84.89l-.61,2.05A10,10,0,0,0,182,404c-4.72,0-7.8,2.94-7.8,7.81s3,7.83,7.49,7.83a8.14,8.14,0,0,0,3.34-.52v-5.79h-4v-2h6.39Z" transform="translate(-83.03 -40.01)" style="fill:#fff"/><path d="M201.34,412.45H193.8v7h8.41v2.1H191.29V402.14h10.48v2.11h-8v6.13h7.54Z" transform="translate(-83.03 -40.01)" style="fill:#fff"/><path d="M211.57,421.55V402.14h2.73l6.22,9.82a54.81,54.81,0,0,1,3.48,6.31l.06,0c-.23-2.59-.29-4.95-.29-8v-8.12h2.37v19.41H223.6l-6.16-9.85a61.66,61.66,0,0,1-3.63-6.48l-.08,0c.14,2.45.2,4.78.2,8v8.29Z" transform="translate(-83.03 -40.01)" style="fill:#fff"/><path d="M247.1,411.64c0,6.69-4.06,10.23-9,10.23-5.13,0-8.73-4-8.73-9.85,0-6.16,3.83-10.19,9-10.19S247.1,405.89,247.1,411.64ZM232,412c0,4.15,2.25,7.86,6.19,7.86s6.22-3.65,6.22-8.06c0-3.86-2-7.89-6.19-7.89S232,407.7,232,412Z" transform="translate(-83.03 -40.01)" style="fill:#fff"/><path d="M253.32,404.27h-5.9v-2.13h14.37v2.13h-5.94v17.28h-2.53Z" transform="translate(-83.03 -40.01)" style="fill:#fff"/><path d="M270.05,402.14H280.5v2.11h-7.94v6.44h7.34v2.08h-7.34v8.78h-2.51Z" transform="translate(-83.03 -40.01)" style="fill:#fff"/><path d="M300.66,411.64c0,6.69-4.06,10.23-9,10.23-5.13,0-8.73-4-8.73-9.85,0-6.16,3.83-10.19,9-10.19S300.66,405.89,300.66,411.64ZM285.6,412c0,4.15,2.25,7.86,6.19,7.86s6.22-3.65,6.22-8.06c0-3.86-2-7.89-6.19-7.89S285.6,407.7,285.6,412Z" transform="translate(-83.03 -40.01)" style="fill:#fff"/><path d="M306.42,402.14v11.49c0,4.35,1.93,6.19,4.52,6.19,2.88,0,4.72-1.9,4.72-6.19V402.14h2.54v11.32c0,6-3.14,8.41-7.35,8.41-4,0-7-2.28-7-8.3V402.14Z" transform="translate(-83.03 -40.01)" style="fill:#fff"/><path d="M322.55,421.55V402.14h2.73L331.5,412a54.81,54.81,0,0,1,3.48,6.31l.06,0c-.23-2.59-.29-4.95-.29-8v-8.12h2.37v19.41h-2.54l-6.16-9.85a61.66,61.66,0,0,1-3.63-6.48l-.08,0c.14,2.45.2,4.78.2,8v8.29Z" transform="translate(-83.03 -40.01)" style="fill:#fff"/><path d="M341.49,402.4a36,36,0,0,1,5.33-.4c3.6,0,6.16.83,7.86,2.42a8.93,8.93,0,0,1,2.74,7,10.25,10.25,0,0,1-2.8,7.54c-1.81,1.81-4.81,2.79-8.58,2.79a39.17,39.17,0,0,1-4.55-.23ZM344,419.56a15.11,15.11,0,0,0,2.53.15c5.36,0,8.27-3,8.27-8.24,0-4.58-2.57-7.48-7.87-7.48a13.76,13.76,0,0,0-2.93.26Z" transform="translate(-83.03 -40.01)" style="fill:#fff"/><path d="M164.6,333.33H124.53v-22.8l37.91-115.19h25.92V310.53h12v22.8h-12v38.39H164.6Zm-18-22.8h18V250.05h-1.44l-1.44,5.28Z" transform="translate(-83.03 -40.01)" style="fill:#08ffff"/><path d="M278.83,335.48a48.06,48.06,0,0,1-4.32,19.2,33,33,0,0,1-10.32,13c-4.8,3.84-11.28,6-19.92,6s-15.36-2.16-20.16-6a32.33,32.33,0,0,1-10.07-13,48.06,48.06,0,0,1-4.32-19.2V231.58a47.83,47.83,0,0,1,4.32-19,33,33,0,0,1,10.07-13.2c4.8-3.6,11.52-6,20.16-6s15.12,2.4,19.92,6a33.7,33.7,0,0,1,10.32,13.2,47.83,47.83,0,0,1,4.32,19Zm-25.92-103.9c0-4.8-1-8.16-3.36-11a7.47,7.47,0,0,0-5.28-1.92c-4.56,0-6.72,3.36-7.68,6.48a18.39,18.39,0,0,0-1,6.48v103.9c0,5,1.2,8.4,3.6,11a6.88,6.88,0,0,0,5,1.92c4.56,0,6.72-2.88,7.68-6.48a16.78,16.78,0,0,0,1-6.48Z" transform="translate(-83.03 -40.01)" style="fill:#08ffff"/><path d="M329.7,333.33H289.62v-22.8l37.92-115.19h25.92V310.53h12v22.8h-12v38.39H329.7Zm-18-22.8h18V250.05h-1.44l-1.44,5.28Z" transform="translate(-83.03 -40.01)" style="fill:#08ffff"/><path d="M177.13,332.19H137.06V309.4L175,194.21h25.92V309.4h12v22.79h-12v38.4H177.13Zm-18-22.79h18V248.92h-1.44l-1.44,5.28Z" transform="translate(-83.03 -40.01)" style="fill:#ff06ff"/><path d="M291.36,334.35a48.06,48.06,0,0,1-4.32,19.2,33,33,0,0,1-10.32,13c-4.8,3.84-11.28,6-19.92,6s-15.35-2.16-20.15-6a32.36,32.36,0,0,1-10.08-13,48.06,48.06,0,0,1-4.32-19.2V230.44a47.78,47.78,0,0,1,4.32-18.95,33,33,0,0,1,10.08-13.2c4.8-3.6,11.51-6,20.15-6s15.12,2.4,19.92,6A33.7,33.7,0,0,1,287,211.49a47.78,47.78,0,0,1,4.32,18.95ZM265.44,230.44c0-4.8-1-8.15-3.36-11a7.51,7.51,0,0,0-5.28-1.91c-4.56,0-6.72,3.36-7.68,6.47a18.39,18.39,0,0,0-1,6.48V334.35c0,5,1.2,8.4,3.6,11a6.88,6.88,0,0,0,5,1.92c4.56,0,6.72-2.88,7.68-6.48a16.78,16.78,0,0,0,1-6.48Z" transform="translate(-83.03 -40.01)" style="fill:#ff06ff"/><path d="M342.23,332.19H302.15V309.4l37.92-115.19H366V309.4h12v22.79H366v38.4H342.23Zm-18-22.79h18V248.92h-1.44l-1.44,5.28Z" transform="translate(-83.03 -40.01)" style="fill:#ff06ff"/><path d="M169.78,330.06H129.7V307.27l37.92-115.19h25.92V307.27h12v22.79h-12v38.4H169.78Zm-18-22.79h18V246.79h-1.44l-1.44,5.28Z" transform="translate(-83.03 -40.01)" style="fill:#fff"/><path d="M284,332.22a48.23,48.23,0,0,1-4.32,19.2,33,33,0,0,1-10.32,13c-4.8,3.84-11.28,6-19.92,6s-15.36-2.16-20.16-6a32.36,32.36,0,0,1-10.08-13,48.06,48.06,0,0,1-4.32-19.2V228.31a47.83,47.83,0,0,1,4.32-18.95,33,33,0,0,1,10.08-13.2c4.8-3.6,11.52-6,20.16-6s15.12,2.4,19.92,6a33.7,33.7,0,0,1,10.32,13.2A48,48,0,0,1,284,228.31ZM258.09,228.31c0-4.79-1-8.15-3.36-11a7.47,7.47,0,0,0-5.28-1.92c-4.56,0-6.72,3.36-7.68,6.48a18.37,18.37,0,0,0-1,6.47V332.22c0,5,1.2,8.4,3.6,11a6.88,6.88,0,0,0,5,1.92c4.56,0,6.72-2.88,7.68-6.48a16.78,16.78,0,0,0,1-6.48Z" transform="translate(-83.03 -40.01)" style="fill:#fff"/><path d="M334.88,330.06H294.8V307.27l37.92-115.19h25.91V307.27h12v22.79h-12v38.4H334.88Zm-18-22.79h18V246.79h-1.44L332,252.07Z" transform="translate(-83.03 -40.01)" style="fill:#fff"/><rect x="12.53" y="172.21" width="86.56" height="8.49" style="fill:#ff06ff"/><rect x="165.05" y="316.95" width="52.02" height="8.49" style="fill:#ff06ff"/><rect x="273.35" y="194.28" width="69.02" height="7.35" style="fill:#ff06ff"/><rect x="102.58" y="194.28" width="28.95" height="7.35" style="fill:#ff06ff"/><rect x="235.73" y="164.86" width="28.95" height="7.35" style="fill:#ff06ff"/><rect x="122.92" y="225.96" width="36.46" height="7.35" style="fill:#ff06ff"/><rect x="241.2" y="299.95" width="32.45" height="7.35" style="fill:#ff06ff"/><rect x="21.02" y="266.13" width="48.09" height="3.26" style="fill:#ff06ff"/><rect x="268.25" y="240.76" width="48.09" height="3.26" style="fill:#ff06ff"/><rect x="149.26" y="257.83" width="26.8" height="3.26" style="fill:#ff06ff"/><rect x="62.71" y="244.02" width="26.8" height="3.26" style="fill:#ff06ff"/><rect x="49.31" y="307.31" width="26.8" height="3.26" style="fill:#ff06ff"/><rect y="173.34" width="86.56" height="8.49" style="fill:#08ffff"/><rect x="152.52" y="318.08" width="52.02" height="8.49" style="fill:#08ffff"/><rect x="260.81" y="195.41" width="69.02" height="7.35" style="fill:#08ffff"/><rect x="90.05" y="195.41" width="28.95" height="7.35" style="fill:#08ffff"/><rect x="223.2" y="165.99" width="28.95" height="7.35" style="fill:#08ffff"/><rect x="110.39" y="227.09" width="36.46" height="7.35" style="fill:#08ffff"/><rect x="228.67" y="301.08" width="32.45" height="7.35" style="fill:#08ffff"/><rect x="8.49" y="267.26" width="48.09" height="3.26" style="fill:#08ffff"/><rect x="255.72" y="241.89" width="48.09" height="3.26" style="fill:#08ffff"/><rect x="136.72" y="258.96" width="26.8" height="3.26" style="fill:#08ffff"/><rect x="50.18" y="245.15" width="26.8" height="3.26" style="fill:#08ffff"/><rect x="36.78" y="308.44" width="26.8" height="3.26" style="fill:#08ffff"/><rect x="5.18" y="170.08" width="86.56" height="8.49" style="fill:#fff"/><rect x="157.7" y="314.82" width="52.02" height="8.49" style="fill:#fff"/><rect x="265.99" y="192.15" width="69.02" height="7.35" style="fill:#fff"/><rect x="95.23" y="192.15" width="28.95" height="7.35" style="fill:#fff"/><rect x="228.37" y="162.73" width="28.95" height="7.35" style="fill:#fff"/><rect x="115.57" y="223.83" width="36.46" height="7.35" style="fill:#fff"/><rect x="233.85" y="297.82" width="32.45" height="7.35" style="fill:#fff"/><rect x="13.66" y="264" width="48.09" height="3.26" style="fill:#fff"/><rect x="260.9" y="238.63" width="48.09" height="3.26" style="fill:#fff"/><rect x="141.9" y="255.7" width="26.8" height="3.26" style="fill:#fff"/><rect x="55.35" y="241.89" width="26.8" height="3.26" style="fill:#fff"/><rect x="41.96" y="305.18" width="26.8" height="3.26" style="fill:#fff"/></g><g id="DESIGNED_BY_FREEPIK" data-name="DESIGNED BY FREEPIK"><path d="M260.1,465.47a7.3,7.3,0,0,0-1.1,1.45l-.47-.24a.6.6,0,1,0-.52.73l.19-.05.45.23a7.1,7.1,0,0,0-.54,1.75l.74.13a6.58,6.58,0,0,1,1.8-3.48Z" transform="translate(-83.03 -40.01)" style="fill:#f9fbfc"/><path d="M265.59,463.16l-.51,0-.07-.63a.69.69,0,0,0,.26-.64.72.72,0,1,0-1.42.17.71.71,0,0,0,.41.56l.07.62a8,8,0,0,0-2.06.65l.33.68a7,7,0,0,1,3-.67,6.71,6.71,0,0,1,1.48.16l.16-.74A7.56,7.56,0,0,0,265.59,463.16Z" transform="translate(-83.03 -40.01)" style="fill:#f9fbfc"/><path d="M272.19,465.71a.6.6,0,0,0,.53-.67.6.6,0,0,0-1.2.08l-.42.36a7.36,7.36,0,0,0-1.41-1.13l-.4.64a6.7,6.7,0,0,1,2.56,2.92l.69-.31a7.46,7.46,0,0,0-.94-1.55l.4-.35A.41.41,0,0,0,272.19,465.71Z" transform="translate(-83.03 -40.01)" style="fill:#f9fbfc"/><path d="M265,473.37c-.38,0-.77,0-1.15,0a15.87,15.87,0,0,1-2.48-.18,9.19,9.19,0,0,1-1.27-.29,6.2,6.2,0,0,0,11.34-1.38,10,10,0,0,1-2.46,1.12A16.69,16.69,0,0,1,265,473.37Z" transform="translate(-83.03 -40.01)" style="fill:#f9fbfc"/><path d="M265.59,464.68a6,6,0,0,0-6.08,5.94,5.86,5.86,0,0,0,.14,1.26c.67.49,2.7.89,5.35.74a11.55,11.55,0,0,0,6.67-2.16,5.44,5.44,0,0,0-.05-.58A6,6,0,0,0,265.59,464.68Zm-2.16,6.51a1.85,1.85,0,1,1,1.85-1.85A1.85,1.85,0,0,1,263.43,471.19Zm4.74-.9a1.36,1.36,0,1,1,1.36-1.36A1.36,1.36,0,0,1,268.17,470.29Z" transform="translate(-83.03 -40.01)" style="fill:#f9fbfc"/><path d="M281.6,466.55a2.82,2.82,0,0,0-1.39-.24c-.55.07-.84.34-.84,1v.86h2.23v1.72h-2.23v5.45h-1.93V469.9H276.1v-1.72h1.34v-.89a2.46,2.46,0,0,1,2.57-2.78,3.91,3.91,0,0,1,1.59.31Z" transform="translate(-83.03 -40.01)" style="fill:#f9fbfc"/><path d="M286.3,469.88a3.27,3.27,0,0,0-.53-.05,1.44,1.44,0,0,0-1.51,1.62v3.9h-1.93v-7.17h1.87V469a2.25,2.25,0,0,1,2-1,1.8,1.8,0,0,1,1.1.34Z" transform="translate(-83.03 -40.01)" style="fill:#f9fbfc"/><path d="M294,471.76a6,6,0,0,1,0,.65h-5.09a1.75,1.75,0,0,0,1.85,1.49,2.94,2.94,0,0,0,1.81-.69l1.13,1.24a4.33,4.33,0,0,1-3.05,1.09,3.78,3.78,0,0,1-.1-7.55A3.47,3.47,0,0,1,294,471.76Zm-5.12-.67H292a1.6,1.6,0,0,0-3.18,0Z" transform="translate(-83.03 -40.01)" style="fill:#f9fbfc"/><path d="M301.62,471.76a6,6,0,0,1,0,.65H296.5a1.73,1.73,0,0,0,1.84,1.49,2.94,2.94,0,0,0,1.81-.69l1.14,1.24a4.37,4.37,0,0,1-3.06,1.09,3.78,3.78,0,0,1-.1-7.55A3.47,3.47,0,0,1,301.62,471.76Zm-5.12-.67h3.18a1.55,1.55,0,0,0-1.56-1.44A1.57,1.57,0,0,0,296.5,471.09Z" transform="translate(-83.03 -40.01)" style="fill:#f9fbfc"/><path d="M310,471.76a3.55,3.55,0,0,1-3.47,3.78,2.65,2.65,0,0,1-2.11-.93v3.7h-1.92V468.18h1.89V469a2.6,2.6,0,0,1,2.14-1A3.55,3.55,0,0,1,310,471.76Zm-5.67,0a1.85,1.85,0,1,0,1.84-2A1.84,1.84,0,0,0,304.29,471.76Z" transform="translate(-83.03 -40.01)" style="fill:#f9fbfc"/><path d="M313.07,465.84a1.24,1.24,0,0,1-2.47,0,1.24,1.24,0,1,1,2.47,0Zm-.26,9.51h-1.93v-7.17h1.93Z" transform="translate(-83.03 -40.01)" style="fill:#f9fbfc"/><path d="M316,470.74l2.7-2.56h2.37l-3.48,3.38,3.5,3.79h-2.37l-2.72-2.9v2.9H314.1V464.7H316Z" transform="translate(-83.03 -40.01)" style="fill:#f9fbfc"/><path d="M184.41,475.29v-1.06a3,3,0,0,1-2.39,1.23c-1.84,0-3.14-1.4-3.14-3.7S180.16,468,182,468a3,3,0,0,1,2.39,1.24v-3.76h1.1v9.77Zm0-1.92v-3.21a2.65,2.65,0,0,0-2.12-1.14c-1.42,0-2.27,1.17-2.27,2.74s.85,2.72,2.27,2.72A2.6,2.6,0,0,0,184.41,473.37Z" transform="translate(-83.03 -40.01)" style="fill:#f9fbfc"/><path d="M186.93,471.74a3.54,3.54,0,0,1,3.49-3.7c2.14,0,3.4,1.67,3.4,3.79v.28h-5.73a2.5,2.5,0,0,0,2.55,2.45,3.11,3.11,0,0,0,2.18-.9l.53.72a3.87,3.87,0,0,1-2.81,1.08A3.51,3.51,0,0,1,186.93,471.74ZM190.4,469a2.35,2.35,0,0,0-2.31,2.35h4.64A2.29,2.29,0,0,0,190.4,469Z" transform="translate(-83.03 -40.01)" style="fill:#f9fbfc"/><path d="M194.61,474.35l.57-.79a3.21,3.21,0,0,0,2.33,1c1.08,0,1.67-.51,1.67-1.21,0-1.72-4.38-.66-4.38-3.29,0-1.09.95-2,2.63-2a3.6,3.6,0,0,1,2.63,1l-.52.77a2.73,2.73,0,0,0-2.11-.9c-1,0-1.56.49-1.56,1.12,0,1.55,4.38.52,4.38,3.28,0,1.18-1,2.13-2.79,2.13A3.75,3.75,0,0,1,194.61,474.35Z" transform="translate(-83.03 -40.01)" style="fill:#f9fbfc"/><path d="M201.48,466.47a.74.74,0,0,1,.73-.75.76.76,0,0,1,.75.75.74.74,0,0,1-.75.73A.73.73,0,0,1,201.48,466.47Zm.19,8.82v-7.08h1.1v7.08Z" transform="translate(-83.03 -40.01)" style="fill:#f9fbfc"/><path d="M204.58,477.11l.56-.83a2.68,2.68,0,0,0,2.3,1,2,2,0,0,0,2.27-2.12v-1a3,3,0,0,1-2.37,1.26c-1.85,0-3.15-1.38-3.15-3.67s1.29-3.67,3.15-3.67a2.94,2.94,0,0,1,2.37,1.24v-1.07h1.1v6.87c0,2.35-1.64,3.08-3.37,3.08A3.63,3.63,0,0,1,204.58,477.11Zm5.13-3.86v-3.09A2.62,2.62,0,0,0,207.6,469c-1.42,0-2.27,1.13-2.27,2.69s.85,2.7,2.27,2.7A2.61,2.61,0,0,0,209.71,473.25Z" transform="translate(-83.03 -40.01)" style="fill:#f9fbfc"/><path d="M217.41,475.29v-4.63c0-1.24-.63-1.64-1.58-1.64a2.73,2.73,0,0,0-2.09,1.1v5.17h-1.1v-7.08h1.1v1a3.47,3.47,0,0,1,2.52-1.2,2,2,0,0,1,2.25,2.28v5Z" transform="translate(-83.03 -40.01)" style="fill:#f9fbfc"/><path d="M219.93,471.74a3.54,3.54,0,0,1,3.49-3.7c2.14,0,3.4,1.67,3.4,3.79v.28h-5.73a2.5,2.5,0,0,0,2.55,2.45,3.11,3.11,0,0,0,2.18-.9l.53.72a3.85,3.85,0,0,1-2.81,1.08A3.51,3.51,0,0,1,219.93,471.74ZM223.4,469a2.36,2.36,0,0,0-2.31,2.35h4.64A2.28,2.28,0,0,0,223.4,469Z" transform="translate(-83.03 -40.01)" style="fill:#f9fbfc"/><path d="M233.35,475.29v-1.06a3,3,0,0,1-2.39,1.23c-1.84,0-3.15-1.4-3.15-3.7S229.1,468,231,468a3,3,0,0,1,2.39,1.24v-3.76h1.1v9.77Zm0-1.92v-3.21a2.68,2.68,0,0,0-2.12-1.14c-1.42,0-2.27,1.17-2.27,2.74s.85,2.72,2.27,2.72A2.63,2.63,0,0,0,233.35,473.37Z" transform="translate(-83.03 -40.01)" style="fill:#f9fbfc"/><path d="M239.69,475.29v-9.77h1.1v3.76a3,3,0,0,1,2.39-1.24c1.84,0,3.15,1.46,3.15,3.72s-1.31,3.7-3.15,3.7a3,3,0,0,1-2.39-1.23v1.06Zm3.21-.81c1.44,0,2.29-1.15,2.29-2.72s-.85-2.74-2.29-2.74a2.65,2.65,0,0,0-2.11,1.14v3.21A2.59,2.59,0,0,0,242.9,474.48Z" transform="translate(-83.03 -40.01)" style="fill:#f9fbfc"/><path d="M247.53,477.06a1.73,1.73,0,0,0,.6.12,1,1,0,0,0,1.05-.75l.47-1.07-3-7.15h1.19l2.36,5.8,2.34-5.8h1.2l-3.54,8.51a2.1,2.1,0,0,1-2.08,1.44,3.52,3.52,0,0,1-.81-.1Z" transform="translate(-83.03 -40.01)" style="fill:#f9fbfc"/></g></svg>